<svg width="14" height="14" viewBox="0 0 14 14" fill="none" xmlns="http://www.w3.org/2000/svg">
<g opacity="0.6" clip-path="url(#clip0_0_1556)">
<path d="M6.25884 11.859C7.20589 11.859 8.0706 11.6531 8.89413 11.2002L11.1177 13.4237C11.7353 14.0414 12.7647 14.0414 13.4235 13.4237C14.0824 12.8061 14.0824 11.7355 13.4235 11.1178L11.2 8.89431C11.6118 8.11196 11.8588 7.20608 11.8588 6.25902C11.8588 3.21196 9.34707 0.700195 6.25884 0.700195C3.21178 0.700195 0.700012 3.21196 0.700012 6.25902C0.700012 9.34725 3.21178 11.859 6.25884 11.859ZM12.8059 11.6943C13.1353 12.0237 13.1353 12.5178 12.8059 12.8473C12.4765 13.1767 11.9824 13.1767 11.653 12.8473L9.55295 10.7473C10.0471 10.3767 10.3353 10.0884 10.7059 9.59431L12.8059 11.6943ZM6.25884 1.52372C8.89413 1.52372 10.9941 3.6649 10.9941 6.25902C10.9941 8.89431 8.85295 10.9943 6.25884 10.9943C3.66472 11.0355 1.52354 8.89431 1.52354 6.25902C1.52354 3.6649 3.66472 1.52372 6.25884 1.52372Z" fill="#070F21"/>
<path d="M3.78825 8.93549H8.72942C8.97648 8.93549 9.14119 8.77078 9.14119 8.52372V7.90608C9.14119 7.08255 8.48237 6.25902 7.94707 5.80608C8.0706 5.55902 8.11178 5.31196 8.11178 5.02372C8.11178 3.99431 7.28825 3.17078 6.25884 3.17078C5.22942 3.17078 4.40589 3.99431 4.40589 5.02372C4.40589 5.31196 4.48825 5.55902 4.5706 5.80608C3.95295 6.25902 3.37648 7.0002 3.37648 7.90608V8.52372C3.37648 8.77078 3.58237 8.93549 3.78825 8.93549ZM6.25884 3.99431C6.83531 3.99431 7.28825 4.44725 7.28825 5.02372C7.28825 5.6002 6.83531 6.05314 6.25884 6.05314C5.68236 6.05314 5.22942 5.6002 5.22942 5.02372C5.22942 4.44725 5.72354 3.99431 6.25884 3.99431ZM4.20001 7.90608C4.20001 7.32961 4.61178 6.79431 5.10589 6.4649C5.43531 6.71196 5.80589 6.87667 6.25884 6.87667C6.71178 6.87667 7.08236 6.71196 7.41178 6.4649C7.78236 6.75314 8.31766 7.41196 8.31766 7.90608V8.11196H4.20001V7.90608Z" fill="#070F21"/>
</g>
<defs>
<clipPath id="clip0_0_1556">
<rect width="14" height="14" fill="white"/>
</clipPath>
</defs>
</svg>
